<svg enable-background="new 0 0 64 64" height="512" viewBox="0 0 64 64" width="512" xmlns="http://www.w3.org/2000/svg"><path d="m42.5 32.5c-3-1-7-1-7-1l1 5z" fill="#826ec8"/><path d="m36.5 37c-.065 0-.13-.013-.191-.038-.154-.063-.266-.2-.299-.364l-1-5c-.029-.146.009-.299.104-.415.094-.116.236-.183.386-.183.167 0 4.116.012 7.158 1.025.181.061.312.219.337.408s-.06.377-.218.482l-6 4c-.083.057-.18.085-.277.085zm-.387-4.985.731 3.655 4.482-2.988c-1.988-.494-4.175-.629-5.213-.667z" fill="#785ae6"/><path d="m29.445 34.5v1.305l-5.945 3.695s-4 1-8 3-4 8-4 12 0 8 0 8h47s0-3 0-8 0-9-4-12-11-5-11-5l-5-3.588v-2.172z" fill="#8d7bd4"/><g fill="#968cd2"><path d="m15.5 44.5c4-2 8-3 8-3l5.945-3.695v-1.305l9.055-2.76v-2l-9.055 2.76v1.305l-5.945 3.695s-4 1-8 3-4 8-4 12v2c0-4 0-10 4-12z"/><path d="m54.5 42.5c-4-3-11-5-11-5l-5-3.588v2l5 3.588s7 2 11 5 4 7 4 12c0-.626 0-1.29 0-2 0-5 0-9-4-12z"/><path d="m45.5 16.5s-1 4-2 7-2 4-2 6-3 2.902-3 2.902v-18z"/></g><path d="m38.5 32.901c-.215 0-.413-.14-.479-.355-.08-.265.07-.543.334-.623.027-.008 2.645-.82 2.645-2.423 0-1.343.421-2.283.954-3.475.327-.731.698-1.562 1.072-2.684.982-2.947 1.979-6.923 1.989-6.963.066-.269.338-.431.606-.364s.431.339.364.606c-.01.04-1.016 4.054-2.011 7.037-.39 1.169-.771 2.022-1.108 2.775-.521 1.168-.866 1.939-.866 3.068 0 2.345-3.219 3.339-3.356 3.38-.048.015-.097.021-.144.021z" fill="#785ae6"/><path d="m29.445 32.5v10l-1 5h4l2.386-9.88 4.669-3.12v-5.76z" fill="#ffb4be"/><path d="m22.5 13.5s-2 2-2 6c0 0 1 7 1 9s2 6 3 6 7 0 9 0 4-2 5-4 1-4 1-4h2c1.657 0 3-1.343 3-3v-2c0-1.657-1.343-3-3-3h-2v-5z" fill="#ffc8d2"/><path d="m11.5 62.5h47s0-.708 0-2h-47z" fill="#826ec8"/><path d="m30.5 47.5c-1.122 0-1.231-.313-2-.59l-1 15.59h5v-14-1.59c-.769.277-.878.59-2 .59z" fill="#f0dc78"/><path d="m27.628 60.5-.128 2h5v-2z" fill="#dcc864"/><path d="m46.5 63c-.276 0-.5-.224-.5-.5v-12c0-.276.224-.5.5-.5s.5.224.5.5v12c0 .276-.224.5-.5.5z" fill="#826ec8"/><path d="m15.5 63c-.276 0-.5-.224-.5-.5v-12c0-.276.224-.5.5-.5s.5.224.5.5v12c0 .276-.224.5-.5.5z" fill="#826ec8"/><g fill="#785ae6"><path d="m23.5 23c-.276 0-.5-.224-.5-.5v-3c0-.276.224-.5.5-.5s.5.224.5.5v3c0 .276-.224.5-.5.5z"/><path d="m27.5 27h-2c-1.153 0-2.5-.393-2.5-1.5 0-1.043 1.696-5.336 2.036-6.186.103-.257.396-.382.65-.278.256.103.381.394.279.649-.76 1.899-1.965 5.157-1.965 5.815 0 .301.903.5 1.5.5h2c.276 0 .5.224.5.5s-.224.5-.5.5z"/><path d="m30.5 23c-.276 0-.5-.224-.5-.5v-3c0-.276.224-.5.5-.5s.5.224.5.5v3c0 .276-.224.5-.5.5z"/><path d="m58.5 63h-47c-.276 0-.5-.224-.5-.5v-8c0-4.105 0-10.309 4.276-12.447 3.747-1.873 7.433-2.865 8.025-3.019l5.643-3.507v-1.027c0-.276.224-.5.5-.5s.5.224.5.5v1.306c0 .173-.089.333-.236.425l-5.944 3.694c-.044.027-.092.048-.143.061-.04.01-3.997 1.012-7.898 2.962-3.723 1.861-3.723 7.693-3.723 11.552v7.5h46v-7.5c0-4.889 0-8.75-3.8-11.6-3.879-2.909-10.769-4.899-10.837-4.92-.073-.021-.14-.058-.197-.108l-4-3.588c-.105-.095-.166-.23-.166-.372v-7.172c0-.276.224-.5.5-.5s.5.224.5.5v6.948l3.749 3.363c.949.279 7.253 2.2 11.051 5.048 4.2 3.151 4.2 7.437 4.2 12.401v8c0 .276-.224.5-.5.5z"/><path d="m30.875 30.5c-.095 0-.191-.027-.277-.084-.409-.272-.788-.416-1.098-.416h-5c-.276 0-.5-.224-.5-.5s.224-.5.5-.5h5c.515 0 1.071.196 1.652.584.23.153.292.464.139.693-.096.145-.255.223-.416.223z"/><path d="m33.5 20h-5c-.276 0-.5-.224-.5-.5s.224-.5.5-.5h5c.276 0 .5.224.5.5s-.224.5-.5.5z"/><path d="m24.5 20h-3c-.276 0-.5-.224-.5-.5s.224-.5.5-.5h3c.276 0 .5.224.5.5s-.224.5-.5.5z"/><path d="m33.5 35h-9c-1.466 0-3.5-4.513-3.5-6.5 0-1.942-.985-8.859-.995-8.93-.005-4.229 2.054-6.336 2.142-6.424.194-.195.51-.194.705-.001.195.194.197.511.003.707-.019.019-1.855 1.926-1.855 5.648.036.217 1 6.987 1 9 0 1.998 1.914 5.366 2.516 5.501l8.984-.001c1.767 0 3.627-1.873 4.553-3.724.931-1.862.947-3.757.947-3.777 0-.275.225-.499.5-.499.276.001.5.224.5.5 0 .087-.012 2.142-1.053 4.224-1.03 2.059-3.174 4.276-5.447 4.276z"/></g><path d="m34.478 13.513c1.004.996 2.009 1.991 2.022 4.991 0 0 .022 5 2.022 4.991s1.964-8.009 1.964-8.009z" fill="#968cd2"/><path d="m19.5 8.5c0 2 0 4 3 5h12s3 1 6 2 7 1 8 1 0-2-1-3c0 0 3 1 3 0s-2-3-4-5-5-5-9-5-7 0-10 0-8 3-8 5z" fill="#e678a0"/><path d="m27.5 5.5h10s7 3 9 5c1.225 1.225 2.444 2.447 3.21 3.442.449.002.79-.106.79-.442 0-1-2-3-4-5s-5-5-9-5-7 0-10 0-8 3-8 5c0 .541.002 1.081.062 1.603.574-1.977 5.131-4.603 7.938-4.603z" fill="#fa8cb4"/><path d="m48.5 17c-.484 0-1.771 0-3.292-.127-.275-.022-.479-.265-.457-.54.022-.274.259-.48.54-.456 1.398.116 2.596.123 3.124.123-.041-.388-.543-1.422-1.268-2.146-.164-.164-.194-.419-.072-.616s.364-.282.583-.212c.946.315 2.003.491 2.336.398-.128-.851-2.271-2.993-3.848-4.57-1.932-1.933-4.853-4.854-8.646-4.854h-10c-2.942 0-7.5 2.989-7.5 4.5 0 1.953 0 3.64 2.658 4.525.262.088.403.371.316.633-.087.261-.369.404-.632.316-3.342-1.114-3.342-3.43-3.342-5.474 0-2.374 5.347-5.5 8.5-5.5h10c4.207 0 7.304 3.097 9.354 5.146 2.58 2.581 4.146 4.228 4.146 5.354 0 .291-.128.544-.36.711-.41.295-1.148.268-1.853.141.452.732.78 1.569.55 2.125-.137.332-.442.523-.837.523z" fill="#785ae6"/><path d="m25.5 14c-.128 0-.256-.049-.354-.146-.087-.088-2.146-2.183-2.146-5.354 0-.276.224-.5.5-.5s.5.224.5.5c0 2.761 1.835 4.628 1.854 4.646.195.195.195.512 0 .707-.098.098-.226.147-.354.147z" fill="#d2648c"/><path d="m28.5 14.014c-.128 0-.257-.049-.355-.147-.358-.362-2.145-2.219-2.145-3.367 0-.276.224-.5.5-.5s.5.224.5.5c0 .49.963 1.764 1.855 2.661.194.196.193.513-.002.707-.098.097-.226.146-.353.146z" fill="#d2648c"/><path d="m32.851 14c-.104 0-.208-.032-.297-.098-1.517-1.123-2.633-3.362-1.501-5.626.124-.246.424-.348.671-.224s.347.424.224.671c-.874 1.748.01 3.493 1.201 4.374.222.165.269.478.104.7-.098.133-.249.203-.402.203z" fill="#d2648c"/><path d="m36.5 36.5c1 0 4 7 4 7l5-6s-2-4-3-5z" fill="#8d7bd4"/><path d="m37.331 37.279 4.169-2.779c.784.784 2.179 3.406 2.747 4.504l1.253-1.504s-2-4-3-5l-6 4c.206 0 .499.307.831.779z" fill="#968cd2"/><path d="m40.5 44c-.024 0-.048-.002-.072-.005-.172-.025-.319-.139-.387-.298-1.289-3.008-3.041-6.429-3.623-6.712-.22 0-.374-.137-.437-.348-.064-.211.059-.432.242-.554l6-4c.197-.133.462-.106.631.062 1.045 1.045 3.011 4.964 3.094 5.13.089.178.064.392-.063.544l-5 6c-.096.116-.238.181-.385.181zm-3.151-7.465c.821.896 1.921 2.909 3.287 6.021l4.27-5.123c-.571-1.119-1.741-3.299-2.495-4.272z" fill="#785ae6"/><path d="m32.5 63c-.276 0-.5-.224-.5-.5v-17c0-.036.004-.073.012-.108.489-2.204 2.26-9.392 4.488-9.392.276 0 .5.224.5.5s-.224.5-.5.5c-.952 0-2.574 4.413-3.5 8.555v16.945c0 .276-.224.5-.5.5z" fill="#785ae6"/><path d="m24.5 36.5c-2 0-3 8-3 8l6-6s-1-2-3-2z" fill="#8d7bd4"/><path d="m21.5 45c-.075 0-.15-.017-.22-.051-.192-.094-.303-.299-.276-.512.247-1.978 1.231-8.437 3.496-8.437 2.283 0 3.401 2.184 3.447 2.276.096.192.059.425-.094.577l-6 6c-.095.096-.224.147-.353.147zm3-8c-.806 0-1.749 2.925-2.285 6.077l4.653-4.652c-.34-.494-1.144-1.425-2.368-1.425z" fill="#785ae6"/><path d="m27.5 62.5v-18c-1-2-1-8-3-8 0 0 2.889-1.695 4.945-1.695z" fill="#8d7bd4"/><path d="m27.5 63c-.006 0-.012 0-.018 0-.269-.01-.482-.23-.482-.5v-17.887c-.359-.786-.583-1.988-.82-3.259-.344-1.837-.813-4.354-1.68-4.354-.226 0-.423-.151-.482-.369s.035-.448.229-.562c.123-.071 3.031-1.763 5.197-1.763.139 0 .271.058.366.159s.143.237.133.376l-1.944 27.694c-.019.263-.237.465-.499.465zm-1.901-26.517c.853.875 1.212 2.806 1.564 4.688.225 1.204.457 2.449.785 3.104.034.071.052.148.052.225v3.739l.905-12.896c-1.146.152-2.468.726-3.306 1.14z" fill="#785ae6"/><path d="m41.5 27h-2c-.276 0-.5-.224-.5-.5s.224-.5.5-.5h2c1.378 0 2.5-1.121 2.5-2.5v-2c0-1.379-1.122-2.5-2.5-2.5h-1c-.276 0-.5-.224-.5-.5s.224-.5.5-.5h1c1.93 0 3.5 1.57 3.5 3.5v2c0 1.93-1.57 3.5-3.5 3.5z" fill="#785ae6"/><path d="m25.5 31.5c-1 0-1 3 0 5s2 1 2 1 2-4 3-5c0-1-1-1-5-1z" fill="#e678a0"/><path d="m26.878 38.25c-.07 0-.144-.005-.22-.018-.614-.1-1.155-.607-1.605-1.509-.854-1.707-1.064-4.179-.441-5.187.213-.346.529-.536.888-.536 4.225 0 5.5 0 5.5 1.5 0 .133-.053.26-.146.354-.773.773-2.36 3.777-2.906 4.87-.024.048-.056.092-.094.13-.045.044-.416.396-.976.396zm-1.368-6.25c-.351.244-.451 2.499.438 4.276.283.565.598.919.863.968.122.023.231-.027.292-.066.304-.602 1.864-3.648 2.854-4.823-.231-.336-1.422-.355-4.447-.355zm4.99.5h.01z" fill="#785ae6"/></svg>